<?xml version="1.0" encoding="UTF-8" standalone="no"?>
<svg xmlns="http://www.w3.org/2000/svg" xmlns:xlink="http://www.w3.org/1999/xlink" contentScriptType="text/ecmascript" width="854" zoomAndPan="magnify" contentStyleType="text/css" height="815" preserveAspectRatio="xMidYMid meet" overflow="visible" version="1.0">
<defs>
<marker refX="10" refY="5" markerUnits="strokeWidth" orient="auto" id="lacij-end-arrow-marker" markerHeight="10" viewBox="0 0 10 10" preserveAspectRatio="xMidYMid meet" markerWidth="14">
<polyline points="0,0 10,5 0,10 1,5"/>
</marker>
</defs>
<g id="graph0">
<g id="edge-16-0">
<line y2="446.20323191941935" marker-end="url(#lacij-end-arrow-marker)" style=" stroke: #000000;  stroke-width: 1; " x1="633.8454664122396" x2="583.5227980693178" y1="450.8711932548994"/>
</g>
<g id="edge-49-33">
<line y2="454.14878311215864" marker-end="url(#lacij-end-arrow-marker)" style=" stroke: #000000;  stroke-width: 1; " x1="257.48610272554583" x2="287.3385965339795" y1="569.5071783950862"/>
</g>
<g id="edge-54-36">
<line y2="608.7202288542343" marker-end="url(#lacij-end-arrow-marker)" style=" stroke: #000000;  stroke-width: 1; " x1="694.1072242814155" x2="697.0826331258302" y1="698.8505458083328"/>
</g>
<g id="edge-10-36">
<line y2="607.5262647295706" marker-end="url(#lacij-end-arrow-marker)" style=" stroke: #000000;  stroke-width: 1; " x1="665.9333596207894" x2="689.5442403252667" y1="724.2109548061949"/>
</g>
<g id="edge-12-16">
<line y2="475.84538555811656" marker-end="url(#lacij-end-arrow-marker)" style=" stroke: #000000;  stroke-width: 1; " x1="560.0175710577374" x2="646.0261938716293" y1="673.9043307349812"/>
</g>
<g id="edge-56-0">
<line y2="461.06612842896726" marker-end="url(#lacij-end-arrow-marker)" style=" stroke: #000000;  stroke-width: 1; " x1="454.0463221005032" x2="550.1401859421406" y1="596.6462988747918"/>
</g>
<g id="edge-29-9">
<line y2="119.19030106735876" marker-end="url(#lacij-end-arrow-marker)" style=" stroke: #000000;  stroke-width: 1; " x1="249.51171588206284" x2="267.5851213119234" y1="68.52426731364123"/>
</g>
<g id="edge-33-1">
<line y2="425.90175894834385" marker-end="url(#lacij-end-arrow-marker)" style=" stroke: #000000;  stroke-width: 1; " x1="313.9843607753243" x2="364.8839197264715" y1="432.5714686772392"/>
</g>
<g id="edge-40-0">
<line y2="464.9970843351375" marker-end="url(#lacij-end-arrow-marker)" style=" stroke: #000000;  stroke-width: 1; " x1="490.55987605284434" x2="556.6823952028044" y1="595.801296537871"/>
</g>
<g id="edge-13-41">
<line y2="316.46459429690907" marker-end="url(#lacij-end-arrow-marker)" style=" stroke: #000000;  stroke-width: 1; " x1="48.87054934996698" x2="119.59727110776022" y1="344.2401636801832"/>
</g>
<g id="edge-31-1">
<line y2="405.28139555469494" marker-end="url(#lacij-end-arrow-marker)" style=" stroke: #000000;  stroke-width: 1; " x1="456.4704669979677" x2="390.347947848008" y1="274.47718335196134"/>
</g>
<g id="edge-52-16">
<line y2="447.0515331423984" marker-end="url(#lacij-end-arrow-marker)" style=" stroke: #000000;  stroke-width: 1; " x1="725.7105181148053" x2="670.1871048138314" y1="427.8201593282047"/>
</g>
<g id="edge-11-57">
<line y2="530.2759927757422" marker-end="url(#lacij-end-arrow-marker)" style=" stroke: #000000;  stroke-width: 1; " x1="61.8751175473362" x2="106.66406420113078" y1="559.2313049312819"/>
</g>
<g id="edge-50-4">
<line y2="289.4695809473465" marker-end="url(#lacij-end-arrow-marker)" style=" stroke: #000000;  stroke-width: 1; " x1="812.961277039085" x2="714.9283202831159" y1="357.60736488970343"/>
</g>
<g id="edge-48-0">
<line y2="464.9970843351375" marker-end="url(#lacij-end-arrow-marker)" style=" stroke: #000000;  stroke-width: 1; " x1="475.62409937099466" x2="556.6823952028044" y1="599.2663153845031"/>
</g>
<g id="edge-21-57">
<line y2="508.65281764622995" marker-end="url(#lacij-end-arrow-marker)" style=" stroke: #000000;  stroke-width: 1; " x1="43.54367709133575" x2="109.31905626473456" y1="470.01738640478726"/>
</g>
<g id="edge-61-9">
<line y2="132.90039908722528" marker-end="url(#lacij-end-arrow-marker)" style=" stroke: #000000;  stroke-width: 1; " x1="175.98094786654616" x2="250.65456025137343" y1="117.15687916249425"/>
</g>
<g id="edge-55-17">
<line y2="269.1216968852977" marker-end="url(#lacij-end-arrow-marker)" style=" stroke: #000000;  stroke-width: 1; " x1="205.17974238800792" x2="236.65246674682595" y1="227.22930395934466"/>
</g>
<g id="edge-60-16">
<line y2="437.1610952350329" marker-end="url(#lacij-end-arrow-marker)" style=" stroke: #000000;  stroke-width: 1; " x1="593.1251897342532" x2="650.7760274727896" y1="207.41288143142802"/>
</g>
<g id="edge-3-9">
<line y2="126.22498678099345" marker-end="url(#lacij-end-arrow-marker)" style=" stroke: #000000;  stroke-width: 1; " x1="211.04230272442095" x2="254.35480171489695" y1="95.01553183154809"/>
</g>
<g id="edge-37-25">
<line y2="682.8465105989078" marker-end="url(#lacij-end-arrow-marker)" style=" stroke: #000000;  stroke-width: 1; " x1="137.26694120210905" x2="186.7392491329129" y1="702.8784233792846"/>
</g>
<g id="edge-41-17">
<line y2="283.372578553911" marker-end="url(#lacij-end-arrow-marker)" style=" stroke: #000000;  stroke-width: 1; " x1="157.37851340857497" x2="232.02207460400902" y1="304.9137093419262"/>
</g>
<g id="edge-39-49">
<line y2="607.0033214667046" marker-end="url(#lacij-end-arrow-marker)" style=" stroke: #000000;  stroke-width: 1; " x1="285.84681703118315" x2="260.10808847072184" y1="723.5457508175958"/>
</g>
<g id="edge-63-1">
<line y2="405.28139555469494" marker-end="url(#lacij-end-arrow-marker)" style=" stroke: #000000;  stroke-width: 1; " x1="434.8926897274761" x2="390.347947848008" y1="277.09719986167266"/>
</g>
<g id="edge-47-33">
<line y2="453.6258398492925" marker-end="url(#lacij-end-arrow-marker)" style=" stroke: #000000;  stroke-width: 1; " x1="384.46374360387057" x2="302.3137322620089" y1="675.4706127965692"/>
</g>
<g id="edge-58-36">
<line y2="588.7324123138524" marker-end="url(#lacij-end-arrow-marker)" style=" stroke: #000000;  stroke-width: 1; " x1="782.5116629524488" x2="716.3846431917801" y1="584.4986701343153"/>
</g>
<g id="edge-51-41">
<line y2="290.038219503949" marker-end="url(#lacij-end-arrow-marker)" style=" stroke: #000000;  stroke-width: 1; " x1="97.2121597263573" x2="128.18372077802573" y1="220.82382346934713"/>
</g>
<g id="edge-36-16">
<line y2="475.3224422952504" marker-end="url(#lacij-end-arrow-marker)" style=" stroke: #000000;  stroke-width: 1; " x1="686.9952119360623" x2="661.0013295996587" y1="571.0734604566738"/>
</g>
<g id="edge-25-49">
<line y2="607.5262647295708" marker-end="url(#lacij-end-arrow-marker)" style=" stroke: #000000;  stroke-width: 1; " x1="217.0283595654094" x2="245.13295274269245" y1="658.3188725909919"/>
</g>
<g id="edge-34-4">
<line y2="262.08701117166277" marker-end="url(#lacij-end-arrow-marker)" style=" stroke: #000000;  stroke-width: 1; " x1="668.5553453659653" x2="694.294073926427" y1="145.5445818207712"/>
</g>
<g id="edge-19-41">
<line y2="309.09230083601005" marker-end="url(#lacij-end-arrow-marker)" style=" stroke: #000000;  stroke-width: 1; " x1="64.55460947164715" x2="117.62187102854708" y1="301.4785564615996"/>
</g>
<g id="edge-5-25">
<line y2="694.0669042035082" marker-end="url(#lacij-end-arrow-marker)" style=" stroke: #000000;  stroke-width: 1; " x1="202.1682538339887" x2="205.41311999294626" y1="770.3622630517466"/>
</g>
<g id="edge-7-49">
<line y2="607.0033214667046" marker-end="url(#lacij-end-arrow-marker)" style=" stroke: #000000;  stroke-width: 1; " x1="317.04095818178246" x2="260.10808847072184" y1="745.9799233964142"/>
</g>
<g id="edge-6-36">
<line y2="602.6255797230323" marker-end="url(#lacij-end-arrow-marker)" style=" stroke: #000000;  stroke-width: 1; " x1="742.2441635573715" x2="710.7714391985531" y1="644.5179726489848"/>
</g>
<g id="edge-17-33">
<line y2="415.464492789075" marker-end="url(#lacij-end-arrow-marker)" style=" stroke: #000000;  stroke-width: 1; " x1="260.1080884707215" x2="292.0884301351398" y1="300.2483582318805"/>
</g>
<g id="edge-57-49">
<line y2="582.5520724263537" marker-end="url(#lacij-end-arrow-marker)" style=" stroke: #000000;  stroke-width: 1; " x1="143.18362221844987" x2="232.95222528330277" y1="529.0007017082789"/>
</g>
<g id="edge-22-36">
<line y2="596.2245441821706" marker-end="url(#lacij-end-arrow-marker)" style=" stroke: #000000;  stroke-width: 1; " x1="763.239127103111" x2="714.9283202831159" y1="615.4162039128979"/>
</g>
<g id="edge-30-4">
<line y2="271.97744907902825" marker-end="url(#lacij-end-arrow-marker)" style=" stroke: #000000;  stroke-width: 1; " x1="764.2843765030306" x2="713.7051512674689" y1="257.88074052826533"/>
</g>
<g id="edge-4-16">
<line y2="437.826299223632" marker-end="url(#lacij-end-arrow-marker)" style=" stroke: #000000;  stroke-width: 1; " x1="689.5442403252667" x2="658.3793438544826" y1="300.7713014947464"/>
</g>
<g id="edge-44-16">
<line y2="457.0515331423984" marker-end="url(#lacij-end-arrow-marker)" style=" stroke: #000000;  stroke-width: 1; " x1="723.7351180355921" x2="672.8665967381427" y1="453.0522544753401"/>
</g>
<g id="edge-42-36">
<line y2="578.7324123138524" marker-end="url(#lacij-end-arrow-marker)" style=" stroke: #000000;  stroke-width: 1; " x1="799.902630417586" x2="713.7051512674689" y1="551.2234530200949"/>
</g>
<g id="edge-38-36">
<line y2="578.7324123138524" marker-end="url(#lacij-end-arrow-marker)" style=" stroke: #000000;  stroke-width: 1; " x1="810.3062849754813" x2="713.7051512674689" y1="509.01416724522795"/>
</g>
<g id="edge-27-25">
<line y2="692.8729400788445" marker-end="url(#lacij-end-arrow-marker)" style=" stroke: #000000;  stroke-width: 1; " x1="168.2941773730597" x2="197.87472719238286" y1="737.7927671582523"/>
</g>
<g id="edge-45-41">
<line y2="294.84141916739674" marker-end="url(#lacij-end-arrow-marker)" style=" stroke: #000000;  stroke-width: 1; " x1="78.21086471082533" x2="122.25226317136399" y1="264.56233565187983"/>
</g>
<g id="edge-20-16">
<line y2="475.84538555811656" marker-end="url(#lacij-end-arrow-marker)" style=" stroke: #000000;  stroke-width: 1; " x1="535.1610891167606" x2="646.0261938716293" y1="685.1720905000346"/>
</g>
<g id="edge-46-4">
<line y2="266.2172340068938" marker-end="url(#lacij-end-arrow-marker)" style=" stroke: #000000;  stroke-width: 1; " x1="744.1824402925738" x2="708.6978726982933" y1="228.19903305971263"/>
</g>
<g id="edge-35-9">
<line y2="119.85550505595785" marker-end="url(#lacij-end-arrow-marker)" style=" stroke: #000000;  stroke-width: 1; " x1="290.191226880802" x2="275.1884376936165" y1="44.987816540381914"/>
</g>
<g id="edge-18-4">
<line y2="262.75221516026187" marker-end="url(#lacij-end-arrow-marker)" style=" stroke: #000000;  stroke-width: 1; " x1="721.8970377611366" x2="701.8973903081201" y1="199.59034188500135"/>
</g>
<g id="edge-32-0">
<line y2="426.31279401205387" marker-end="url(#lacij-end-arrow-marker)" style=" stroke: #000000;  stroke-width: 1; " x1="514.759639068512" x2="561.4322288039647" y1="276.57425659880647"/>
</g>
<g id="edge-8-0">
<line y2="426.31279401205387" marker-end="url(#lacij-end-arrow-marker)" style=" stroke: #000000;  stroke-width: 1; " x1="528.4275390284795" x2="561.4322288039647" y1="283.492991265284"/>
</g>
<g id="edge-53-57">
<line y2="540.302422255679" marker-end="url(#lacij-end-arrow-marker)" style=" stroke: #000000;  stroke-width: 1; " x1="76.13729821056569" x2="117.79954226060075" y1="604.2804780780468"/>
</g>
<g id="edge-9-17">
<line y2="262.7522151602621" marker-end="url(#lacij-end-arrow-marker)" style=" stroke: #000000;  stroke-width: 1; " x1="270.37368051132654" x2="257.4861027255455" y1="159.06855551510614"/>
</g>
<g id="edge-43-57">
<line y2="522.9036993148433" marker-end="url(#lacij-end-arrow-marker)" style=" stroke: #000000;  stroke-width: 1; " x1="51.550041274278385" x2="104.68866412191764" y1="516.4696977126985"/>
</g>
<g id="edge-2-4">
<line y2="262.08701117166277" marker-end="url(#lacij-end-arrow-marker)" style=" stroke: #000000;  stroke-width: 1; " x1="696.8957834808184" x2="694.294073926427" y1="171.95669421756412"/>
</g>
<g id="edge-23-17">
<line y2="296.8403455885764" marker-end="url(#lacij-end-arrow-marker)" style=" stroke: #000000;  stroke-width: 1; " x1="127.14902938661174" x2="238.59074348202833" y1="397.8584565522831"/>
</g>
<g id="edge-24-0">
<line y2="428.54428006224083" marker-end="url(#lacij-end-arrow-marker)" style=" stroke: #000000;  stroke-width: 1; " x1="493.1818617980204" x2="554.1333668136" y1="273.95424008909515"/>
</g>
<g id="edge-26-36">
<line y2="607.0033214667044" marker-end="url(#lacij-end-arrow-marker)" style=" stroke: #000000;  stroke-width: 1; " x1="726.6468713622969" x2="704.5193760532961" y1="670.0229340162319"/>
</g>
<g id="edge-59-25">
<line y2="675.4742171380088" marker-end="url(#lacij-end-arrow-marker)" style=" stroke: #000000;  stroke-width: 1; " x1="109.07742686484164" x2="184.76384905369977" y1="668.156947076386"/>
</g>
<g id="edge-28-16">
<line y2="475.84538555811656" marker-end="url(#lacij-end-arrow-marker)" style=" stroke: #000000;  stroke-width: 1; " x1="590.5032039890774" x2="646.0261938716293" y1="662.3426551955381"/>
</g>
<g id="edge-14-4">
<line y2="289.4695809473465" marker-end="url(#lacij-end-arrow-marker)" style=" stroke: #000000;  stroke-width: 1; " x1="798.8573810176663" x2="714.9283202831159" y1="322.07349142106824"/>
</g>
<g id="edge-15-33">
<line y2="416.1296967776741" marker-end="url(#lacij-end-arrow-marker)" style=" stroke: #000000;  stroke-width: 1; " x1="387.01277199307435" x2="299.6917465168329" y1="196.3741491548513"/>
</g>
<g id="edge-62-4">
<line y2="281.97744907902825" marker-end="url(#lacij-end-arrow-marker)" style=" stroke: #000000;  stroke-width: 1; " x1="782.5116629524488" x2="716.3846431917801" y1="289.0014502083304"/>
</g>
<g id="node-0" transform="translate(543.5227980693178, 426.20323191941935)">
<circle shape=":circle" width="25" style=" fill: lightblue;  stroke: black; " r="20" cx="20" cy="20" height="25"/>
<text x="20" font-size="12" y="20" style=" dominant-baseline: central; " text-anchor="middle">0</text>
</g>
<g id="node-29" transform="translate(221.37698302054685, 30.25335816078922)">
<circle shape=":circle" width="25" style=" fill: lightblue;  stroke: black; " r="20" cx="20" cy="20" height="25"/>
<text x="20" font-size="12" y="20" style=" dominant-baseline: central; " text-anchor="middle">29</text>
</g>
<g id="node-6" transform="translate(737.565052419751, 637.3737248427157)">
<circle shape=":circle" width="25" style=" fill: lightblue;  stroke: black; " r="20" cx="20" cy="20" height="25"/>
<text x="20" font-size="12" y="20" style=" dominant-baseline: central; " text-anchor="middle">6</text>
</g>
<g id="node-7" transform="translate(306.43038943750025, 743.6388752535927)">
<circle shape=":circle" width="25" style=" fill: lightblue;  stroke: black; " r="20" cx="20" cy="20" height="25"/>
<text x="20" font-size="12" y="20" style=" dominant-baseline: central; " text-anchor="middle">7</text>
</g>
<g id="node-44" transform="translate(723.6863990407886, 431.65712500045754)">
<circle shape=":circle" width="25" style=" fill: lightblue;  stroke: black; " r="20" cx="20" cy="20" height="25"/>
<text x="20" font-size="12" y="20" style=" dominant-baseline: central; " text-anchor="middle">44</text>
</g>
<g id="node-45" transform="translate(43.82406870405231, 230.6691682426999)">
<circle shape=":circle" width="25" style=" fill: lightblue;  stroke: black; " r="20" cx="20" cy="20" height="25"/>
<text x="20" font-size="12" y="20" style=" dominant-baseline: central; " text-anchor="middle">45</text>
</g>
<g id="node-5" transform="translate(176.65550671764873, 769.587496970513)">
<circle shape=":circle" width="25" style=" fill: lightblue;  stroke: black; " r="20" cx="20" cy="20" height="25"/>
<text x="20" font-size="12" y="20" style=" dominant-baseline: central; " text-anchor="middle">5</text>
</g>
<g id="node-43" transform="translate(11.550041274278385, 496.4696977126984)">
<circle shape=":circle" width="25" style=" fill: lightblue;  stroke: black; " r="20" cx="20" cy="20" height="25"/>
<text x="20" font-size="12" y="20" style=" dominant-baseline: central; " text-anchor="middle">43</text>
</g>
<g id="node-8" transform="translate(507.72954909442944, 243.5051747249021)">
<circle shape=":circle" width="25" style=" fill: lightblue;  stroke: black; " r="20" cx="20" cy="20" height="25"/>
<text x="20" font-size="12" y="20" style=" dominant-baseline: central; " text-anchor="middle">8</text>
</g>
<g id="node-46" transform="translate(737.5650524197509, 193.33613655016475)">
<circle shape=":circle" width="25" style=" fill: lightblue;  stroke: black; " r="20" cx="20" cy="20" height="25"/>
<text x="20" font-size="12" y="20" style=" dominant-baseline: central; " text-anchor="middle">46</text>
</g>
<g id="node-9" transform="translate(249.6756905772765, 119.08073897472423)">
<circle shape=":circle" width="25" style=" fill: lightblue;  stroke: black; " r="20" cx="20" cy="20" height="25"/>
<text x="20" font-size="12" y="20" style=" dominant-baseline: central; " text-anchor="middle">9</text>
</g>
<g id="node-42" transform="translate(797.8785113435694, 522.4560300843134)">
<circle shape=":circle" width="25" style=" fill: lightblue;  stroke: black; " r="20" cx="20" cy="20" height="25"/>
<text x="20" font-size="12" y="20" style=" dominant-baseline: central; " text-anchor="middle">42</text>
</g>
<g id="node-47" transform="translate(373.85317485958836, 673.1295646537477)">
<circle shape=":circle" width="25" style=" fill: lightblue;  stroke: black; " r="20" cx="20" cy="20" height="25"/>
<text x="20" font-size="12" y="20" style=" dominant-baseline: central; " text-anchor="middle">47</text>
</g>
<g id="node-4" transform="translate(676.3846431917801, 261.97744907902825)">
<circle shape=":circle" width="25" style=" fill: lightblue;  stroke: black; " r="20" cx="20" cy="20" height="25"/>
<text x="20" font-size="12" y="20" style=" dominant-baseline: central; " text-anchor="middle">4</text>
</g>
<g id="node-41" transform="translate(117.57315203374355, 287.6971713611275)">
<circle shape=":circle" width="25" style=" fill: lightblue;  stroke: black; " r="20" cx="20" cy="20" height="25"/>
<text x="20" font-size="12" y="20" style=" dominant-baseline: central; " text-anchor="middle">41</text>
</g>
<g id="node-3" transform="translate(176.65550671764794, 61.12236442236815)">
<circle shape=":circle" width="25" style=" fill: lightblue;  stroke: black; " r="20" cx="20" cy="20" height="25"/>
<text x="20" font-size="12" y="20" style=" dominant-baseline: central; " text-anchor="middle">3</text>
</g>
<g id="node-48" transform="translate(443.3108698644815, 595.0265304566375)">
<circle shape=":circle" width="25" style=" fill: lightblue;  stroke: black; " r="20" cx="20" cy="20" height="25"/>
<text x="20" font-size="12" y="20" style=" dominant-baseline: central; " text-anchor="middle">48</text>
</g>
<g id="node-39" transform="translate(267.93738629653626, 723.4361887249613)">
<circle shape=":circle" width="25" style=" fill: lightblue;  stroke: black; " r="20" cx="20" cy="20" height="25"/>
<text x="20" font-size="12" y="20" style=" dominant-baseline: central; " text-anchor="middle">39</text>
</g>
<g id="node-50" transform="translate(808.2821659014645, 350.4631170834342)">
<circle shape=":circle" width="25" style=" fill: lightblue;  stroke: black; " r="20" cx="20" cy="20" height="25"/>
<text x="20" font-size="12" y="20" style=" dominant-baseline: central; " text-anchor="middle">50</text>
</g>
<g id="node-51" transform="translate(69.0774268648413, 182.5529143164951)">
<circle shape=":circle" width="25" style=" fill: lightblue;  stroke: black; " r="20" cx="20" cy="20" height="25"/>
<text x="20" font-size="12" y="20" style=" dominant-baseline: central; " text-anchor="middle">51</text>
</g>
<g id="node-38" transform="translate(808.2821659014646, 480.2467443094464)">
<circle shape=":circle" width="25" style=" fill: lightblue;  stroke: black; " r="20" cx="20" cy="20" height="25"/>
<text x="20" font-size="12" y="20" style=" dominant-baseline: central; " text-anchor="middle">38</text>
</g>
<g id="node-33" transform="translate(274.1789994004929, 415.3549306964405)">
<circle shape=":circle" width="25" style=" fill: lightblue;  stroke: black; " r="20" cx="20" cy="20" height="25"/>
<text x="20" font-size="12" y="20" style=" dominant-baseline: central; " text-anchor="middle">33</text>
</g>
<g id="node-34" transform="translate(640.4206125044493, 107.27367266791919)">
<circle shape=":circle" width="25" style=" fill: lightblue;  stroke: black; " r="20" cx="20" cy="20" height="25"/>
<text x="20" font-size="12" y="20" style=" dominant-baseline: central; " text-anchor="middle">34</text>
</g>
<g id="node-32" transform="translate(486.62490620699595, 238.30334744595444)">
<circle shape=":circle" width="25" style=" fill: lightblue;  stroke: black; " r="20" cx="20" cy="20" height="25"/>
<text x="20" font-size="12" y="20" style=" dominant-baseline: central; " text-anchor="middle">32</text>
</g>
<g id="node-35" transform="translate(269.49323694675195, 5.0)">
<circle shape=":circle" width="25" style=" fill: lightblue;  stroke: black; " r="20" cx="20" cy="20" height="25"/>
<text x="20" font-size="12" y="20" style=" dominant-baseline: central; " text-anchor="middle">35</text>
</g>
<g id="node-31" transform="translate(443.3108698644811, 235.68333093624318)">
<circle shape=":circle" width="25" style=" fill: lightblue;  stroke: black; " r="20" cx="20" cy="20" height="25"/>
<text x="20" font-size="12" y="20" style=" dominant-baseline: central; " text-anchor="middle">31</text>
</g>
<g id="node-36" transform="translate(676.3846431917801, 568.7324123138524)">
<circle shape=":circle" width="25" style=" fill: lightblue;  stroke: black; " r="20" cx="20" cy="20" height="25"/>
<text x="20" font-size="12" y="20" style=" dominant-baseline: central; " text-anchor="middle">36</text>
</g>
<g id="node-30" transform="translate(762.2602574290139, 229.11331759248378)">
<circle shape=":circle" width="25" style=" fill: lightblue;  stroke: black; " r="20" cx="20" cy="20" height="25"/>
<text x="20" font-size="12" y="20" style=" dominant-baseline: central; " text-anchor="middle">30</text>
</g>
<g id="node-37" transform="translate(99.94643312642029, 692.8784233792846)">
<circle shape=":circle" width="25" style=" fill: lightblue;  stroke: black; " r="20" cx="20" cy="20" height="25"/>
<text x="20" font-size="12" y="20" style=" dominant-baseline: central; " text-anchor="middle">37</text>
</g>
<g id="node-61" transform="translate(135.98094786654616, 97.15687916249425)">
<circle shape=":circle" width="25" style=" fill: lightblue;  stroke: black; " r="20" cx="20" cy="20" height="25"/>
<text x="20" font-size="12" y="20" style=" dominant-baseline: central; " text-anchor="middle">61</text>
</g>
<g id="node-49" transform="translate(231.97335560920584, 568.7324123138526)">
<circle shape=":circle" width="25" style=" fill: lightblue;  stroke: black; " r="20" cx="20" cy="20" height="25"/>
<text x="20" font-size="12" y="20" style=" dominant-baseline: central; " text-anchor="middle">49</text>
</g>
<g id="node-62" transform="translate(782.4629439576453, 267.6063207334479)">
<circle shape=":circle" width="25" style=" fill: lightblue;  stroke: black; " r="20" cx="20" cy="20" height="25"/>
<text x="20" font-size="12" y="20" style=" dominant-baseline: central; " text-anchor="middle">62</text>
</g>
<g id="node-60" transform="translate(564.9904568727372, 169.141972278576)">
<circle shape=":circle" width="25" style=" fill: lightblue;  stroke: black; " r="20" cx="20" cy="20" height="25"/>
<text x="20" font-size="12" y="20" style=" dominant-baseline: central; " text-anchor="middle">60</text>
</g>
<g id="node-23" transform="translate(94.83579988009859, 393.6186716244175)">
<circle shape=":circle" width="25" style=" fill: lightblue;  stroke: black; " r="20" cx="20" cy="20" height="25"/>
<text x="20" font-size="12" y="20" style=" dominant-baseline: central; " text-anchor="middle">23</text>
</g>
<g id="node-22" transform="translate(762.260257429014, 601.5965438003968)">
<circle shape=":circle" width="25" style=" fill: lightblue;  stroke: black; " r="20" cx="20" cy="20" height="25"/>
<text x="20" font-size="12" y="20" style=" dominant-baseline: central; " text-anchor="middle">22</text>
</g>
<g id="node-24" transform="translate(465.0471289365044, 235.68333093624315)">
<circle shape=":circle" width="25" style=" fill: lightblue;  stroke: black; " r="20" cx="20" cy="20" height="25"/>
<text x="20" font-size="12" y="20" style=" dominant-baseline: central; " text-anchor="middle">24</text>
</g>
<g id="node-21" transform="translate(5.0, 442.525254536469)">
<circle shape=":circle" width="25" style=" fill: lightblue;  stroke: black; " r="20" cx="20" cy="20" height="25"/>
<text x="20" font-size="12" y="20" style=" dominant-baseline: central; " text-anchor="middle">21</text>
</g>
<g id="node-25" transform="translate(184.71513005889625, 654.0790876631263)">
<circle shape=":circle" width="25" style=" fill: lightblue;  stroke: black; " r="20" cx="20" cy="20" height="25"/>
<text x="20" font-size="12" y="20" style=" dominant-baseline: central; " text-anchor="middle">25</text>
</g>
<g id="node-20" transform="translate(502.8478596102475, 680.9323055721691)">
<circle shape=":circle" width="25" style=" fill: lightblue;  stroke: black; " r="20" cx="20" cy="20" height="25"/>
<text x="20" font-size="12" y="20" style=" dominant-baseline: central; " text-anchor="middle">20</text>
</g>
<g id="node-63" transform="translate(421.7330925939895, 238.30334744595453)">
<circle shape=":circle" width="25" style=" fill: lightblue;  stroke: black; " r="20" cx="20" cy="20" height="25"/>
<text x="20" font-size="12" y="20" style=" dominant-baseline: central; " text-anchor="middle">63</text>
</g>
<g id="node-26" transform="translate(708.73744062765, 669.9133719235974)">
<circle shape=":circle" width="25" style=" fill: lightblue;  stroke: black; " r="20" cx="20" cy="20" height="25"/>
<text x="20" font-size="12" y="20" style=" dominant-baseline: central; " text-anchor="middle">26</text>
</g>
<g id="node-17" transform="translate(231.9733556092055, 261.9774490790285)">
<circle shape=":circle" width="25" style=" fill: lightblue;  stroke: black; " r="20" cx="20" cy="20" height="25"/>
<text x="20" font-size="12" y="20" style=" dominant-baseline: central; " text-anchor="middle">17</text>
</g>
<g id="node-16" transform="translate(632.8665967381427, 437.0515331423984)">
<circle shape=":circle" width="25" style=" fill: lightblue;  stroke: black; " r="20" cx="20" cy="20" height="25"/>
<text x="20" font-size="12" y="20" style=" dominant-baseline: central; " text-anchor="middle">16</text>
</g>
<g id="node-19" transform="translate(24.554609471647154, 281.4785564615996)">
<circle shape=":circle" width="25" style=" fill: lightblue;  stroke: black; " r="20" cx="20" cy="20" height="25"/>
<text x="20" font-size="12" y="20" style=" dominant-baseline: central; " text-anchor="middle">19</text>
</g>
<g id="node-18" transform="translate(708.73744062765, 160.7964894692832)">
<circle shape=":circle" width="25" style=" fill: lightblue;  stroke: black; " r="20" cx="20" cy="20" height="25"/>
<text x="20" font-size="12" y="20" style=" dominant-baseline: central; " text-anchor="middle">18</text>
</g>
<g id="node-12" transform="translate(534.5048239413975, 673.1295646537476)">
<circle shape=":circle" width="25" style=" fill: lightblue;  stroke: black; " r="20" cx="20" cy="20" height="25"/>
<text x="20" font-size="12" y="20" style=" dominant-baseline: central; " text-anchor="middle">12</text>
</g>
<g id="node-11" transform="translate(24.55460947164744, 549.2313049312819)">
<circle shape=":circle" width="25" style=" fill: lightblue;  stroke: black; " r="20" cx="20" cy="20" height="25"/>
<text x="20" font-size="12" y="20" style=" dominant-baseline: central; " text-anchor="middle">11</text>
</g>
<g id="node-56" transform="translate(421.73309259399, 592.4065139469262)">
<circle shape=":circle" width="25" style=" fill: lightblue;  stroke: black; " r="20" cx="20" cy="20" height="25"/>
<text x="20" font-size="12" y="20" style=" dominant-baseline: central; " text-anchor="middle">56</text>
</g>
<g id="node-55" transform="translate(170.7929463812349, 193.33613655016472)">
<circle shape=":circle" width="25" style=" fill: lightblue;  stroke: black; " r="20" cx="20" cy="20" height="25"/>
<text x="20" font-size="12" y="20" style=" dominant-baseline: central; " text-anchor="middle">55</text>
</g>
<g id="node-13" transform="translate(11.550041274278215, 334.2401636801832)">
<circle shape=":circle" width="25" style=" fill: lightblue;  stroke: black; " r="20" cx="20" cy="20" height="25"/>
<text x="20" font-size="12" y="20" style=" dominant-baseline: central; " text-anchor="middle">13</text>
</g>
<g id="node-10" transform="translate(640.4206125044494, 723.4361887249613)">
<circle shape=":circle" width="25" style=" fill: lightblue;  stroke: black; " r="20" cx="20" cy="20" height="25"/>
<text x="20" font-size="12" y="20" style=" dominant-baseline: central; " text-anchor="middle">10</text>
</g>
<g id="node-54" transform="translate(676.1977935467686, 698.7409837156982)">
<circle shape=":circle" width="25" style=" fill: lightblue;  stroke: black; " r="20" cx="20" cy="20" height="25"/>
<text x="20" font-size="12" y="20" style=" dominant-baseline: central; " text-anchor="middle">54</text>
</g>
<g id="node-57" transform="translate(104.63994512711412, 501.5085698399608)">
<circle shape=":circle" width="25" style=" fill: lightblue;  stroke: black; " r="20" cx="20" cy="20" height="25"/>
<text x="20" font-size="12" y="20" style=" dominant-baseline: central; " text-anchor="middle">57</text>
</g>
<g id="node-14" transform="translate(797.8785113435694, 308.2538313085672)">
<circle shape=":circle" width="25" style=" fill: lightblue;  stroke: black; " r="20" cx="20" cy="20" height="25"/>
<text x="20" font-size="12" y="20" style=" dominant-baseline: central; " text-anchor="middle">14</text>
</g>
<g id="node-53" transform="translate(43.824068704052536, 600.0406931501813)">
<circle shape=":circle" width="25" style=" fill: lightblue;  stroke: black; " r="20" cx="20" cy="20" height="25"/>
<text x="20" font-size="12" y="20" style=" dominant-baseline: central; " text-anchor="middle">53</text>
</g>
<g id="node-58" transform="translate(782.4629439576453, 563.1035406594327)">
<circle shape=":circle" width="25" style=" fill: lightblue;  stroke: black; " r="20" cx="20" cy="20" height="25"/>
<text x="20" font-size="12" y="20" style=" dominant-baseline: central; " text-anchor="middle">58</text>
</g>
<g id="node-52" transform="translate(723.6863990407886, 399.0527363924231)">
<circle shape=":circle" width="25" style=" fill: lightblue;  stroke: black; " r="20" cx="20" cy="20" height="25"/>
<text x="20" font-size="12" y="20" style=" dominant-baseline: central; " text-anchor="middle">52</text>
</g>
<g id="node-15" transform="translate(373.85317485958774, 157.58029673913313)">
<circle shape=":circle" width="25" style=" fill: lightblue;  stroke: black; " r="20" cx="20" cy="20" height="25"/>
<text x="20" font-size="12" y="20" style=" dominant-baseline: central; " text-anchor="middle">15</text>
</g>
<g id="node-59" transform="translate(69.07742686484164, 648.156947076386)">
<circle shape=":circle" width="25" style=" fill: lightblue;  stroke: black; " r="20" cx="20" cy="20" height="25"/>
<text x="20" font-size="12" y="20" style=" dominant-baseline: central; " text-anchor="middle">59</text>
</g>
<g id="node-1" transform="translate(364.835200731668, 404.5066294734613)">
<circle shape=":circle" width="25" style=" fill: lightblue;  stroke: black; " r="20" cx="20" cy="20" height="25"/>
<text x="20" font-size="12" y="20" style=" dominant-baseline: central; " text-anchor="middle">1</text>
</g>
<g id="node-28" transform="translate(564.9904568727375, 661.5678891143045)">
<circle shape=":circle" width="25" style=" fill: lightblue;  stroke: black; " r="20" cx="20" cy="20" height="25"/>
<text x="20" font-size="12" y="20" style=" dominant-baseline: central; " text-anchor="middle">28</text>
</g>
<g id="node-40" transform="translate(465.04712893650435, 595.0265304566375)">
<circle shape=":circle" width="25" style=" fill: lightblue;  stroke: black; " r="20" cx="20" cy="20" height="25"/>
<text x="20" font-size="12" y="20" style=" dominant-baseline: central; " text-anchor="middle">40</text>
</g>
<g id="node-2" transform="translate(676.1977935467684, 131.9688776771822)">
<circle shape=":circle" width="25" style=" fill: lightblue;  stroke: black; " r="20" cx="20" cy="20" height="25"/>
<text x="20" font-size="12" y="20" style=" dominant-baseline: central; " text-anchor="middle">2</text>
</g>
<g id="node-27" transform="translate(135.98094786654656, 733.5529822303868)">
<circle shape=":circle" width="25" style=" fill: lightblue;  stroke: black; " r="20" cx="20" cy="20" height="25"/>
<text x="20" font-size="12" y="20" style=" dominant-baseline: central; " text-anchor="middle">27</text>
</g>
</g>
</svg>
