<?xml version="1.0" encoding="UTF-8" standalone="no"?>
<svg xmlns="http://www.w3.org/2000/svg" xmlns:xlink="http://www.w3.org/1999/xlink" contentScriptType="text/ecmascript" width="610" zoomAndPan="magnify" contentStyleType="text/css" height="330" preserveAspectRatio="xMidYMid meet" overflow="visible" version="1.0">
<defs>
<marker refX="10" refY="5" markerUnits="strokeWidth" orient="auto" id="lacij-end-arrow-marker" markerHeight="10" viewBox="0 0 10 10" preserveAspectRatio="xMidYMid meet" markerWidth="14">
<polyline points="0,0 10,5 0,10 1,5"/>
</marker>
</defs>
<g id="graph0">
<g id="edge-10-1">
<line y2="305.0" marker-end="url(#lacij-end-arrow-marker)" style=" stroke: #000000;  stroke-width: 1; " x1="565.0487189948035" x2="515.0" y1="306.39512947488254"/>
</g>
<g id="edge-9-4">
<line y2="43.27090915285201" marker-end="url(#lacij-end-arrow-marker)" style=" stroke: #000000;  stroke-width: 1; " x1="33.13473286151601" x2="33.13473286151601" y1="43.27090915285201"/>
</g>
<g id="edge-8-9">
<line y2="43.27090915285201" marker-end="url(#lacij-end-arrow-marker)" style=" stroke: #000000;  stroke-width: 1; " x1="33.13473286151601" x2="33.13473286151601" y1="43.27090915285201"/>
</g>
<g id="edge-7-5">
<line y2="43.27090915285201" marker-end="url(#lacij-end-arrow-marker)" style=" stroke: #000000;  stroke-width: 1; " x1="33.13473286151601" x2="33.13473286151601" y1="43.27090915285201"/>
</g>
<g id="edge-6-3">
<line y2="43.27090915285201" marker-end="url(#lacij-end-arrow-marker)" style=" stroke: #000000;  stroke-width: 1; " x1="33.13473286151601" x2="33.13473286151601" y1="43.27090915285201"/>
</g>
<g id="edge-5-3">
<line y2="43.27090915285201" marker-end="url(#lacij-end-arrow-marker)" style=" stroke: #000000;  stroke-width: 1; " x1="33.13473286151601" x2="33.13473286151601" y1="43.27090915285201"/>
</g>
<g id="edge-4-5">
<line y2="43.27090915285201" marker-end="url(#lacij-end-arrow-marker)" style=" stroke: #000000;  stroke-width: 1; " x1="33.13473286151601" x2="33.13473286151601" y1="43.27090915285201"/>
</g>
<g id="edge-3-9">
<line y2="43.27090915285201" marker-end="url(#lacij-end-arrow-marker)" style=" stroke: #000000;  stroke-width: 1; " x1="33.13473286151601" x2="33.13473286151601" y1="43.27090915285201"/>
</g>
<g id="edge-2-4">
<line y2="43.27090915285201" marker-end="url(#lacij-end-arrow-marker)" style=" stroke: #000000;  stroke-width: 1; " x1="33.13473286151601" x2="33.13473286151601" y1="43.27090915285201"/>
</g>
<g id="node-0" transform="translate(295.0, 285.0)">
<circle shape=":circle" width="25" style=" fill: white;  stroke: black; " r="20" cx="20" cy="20" height="25"/>
<text x="20" font-size="12" y="20" style=" dominant-baseline: central; " text-anchor="middle">0</text>
</g>
<g id="node-6" transform="translate(5, 5)">
<circle shape=":circle" width="25" style=" fill: white;  stroke: black; " r="20" cx="20" cy="20" height="25"/>
<text x="20" font-size="12" y="20" style=" dominant-baseline: central; " text-anchor="middle">6</text>
</g>
<g id="node-7" transform="translate(5, 5)">
<circle shape=":circle" width="25" style=" fill: white;  stroke: black; " r="20" cx="20" cy="20" height="25"/>
<text x="20" font-size="12" y="20" style=" dominant-baseline: central; " text-anchor="middle">7</text>
</g>
<g id="node-5" transform="translate(5, 5)">
<circle shape=":circle" width="25" style=" fill: white;  stroke: black; " r="20" cx="20" cy="20" height="25"/>
<text x="20" font-size="12" y="20" style=" dominant-baseline: central; " text-anchor="middle">5</text>
</g>
<g id="node-8" transform="translate(5, 5)">
<circle shape=":circle" width="25" style=" fill: white;  stroke: black; " r="20" cx="20" cy="20" height="25"/>
<text x="20" font-size="12" y="20" style=" dominant-baseline: central; " text-anchor="middle">8</text>
</g>
<g id="node-9" transform="translate(5, 5)">
<circle shape=":circle" width="25" style=" fill: white;  stroke: black; " r="20" cx="20" cy="20" height="25"/>
<text x="20" font-size="12" y="20" style=" dominant-baseline: central; " text-anchor="middle">9</text>
</g>
<g id="node-4" transform="translate(5, 5)">
<circle shape=":circle" width="25" style=" fill: white;  stroke: black; " r="20" cx="20" cy="20" height="25"/>
<text x="20" font-size="12" y="20" style=" dominant-baseline: central; " text-anchor="middle">4</text>
</g>
<g id="node-3" transform="translate(5, 5)">
<circle shape=":circle" width="25" style=" fill: white;  stroke: black; " r="20" cx="20" cy="20" height="25"/>
<text x="20" font-size="12" y="20" style=" dominant-baseline: central; " text-anchor="middle">3</text>
</g>
<g id="node-10" transform="translate(565.0, 285.0)">
<circle shape=":circle" width="25" style=" fill: white;  stroke: black; " r="20" cx="20" cy="20" height="25"/>
<text x="20" font-size="12" y="20" style=" dominant-baseline: central; " text-anchor="middle">10</text>
</g>
<g id="node-1" transform="translate(475.0, 285.0)">
<circle shape=":circle" width="25" style=" fill: white;  stroke: black; " r="20" cx="20" cy="20" height="25"/>
<text x="20" font-size="12" y="20" style=" dominant-baseline: central; " text-anchor="middle">1</text>
</g>
<g id="node-2" transform="translate(5, 5)">
<circle shape=":circle" width="25" style=" fill: white;  stroke: black; " r="20" cx="20" cy="20" height="25"/>
<text x="20" font-size="12" y="20" style=" dominant-baseline: central; " text-anchor="middle">2</text>
</g>
</g>
</svg>
